<svg width="30" height="30" viewBox="0 0 30 30" fill="none" xmlns="http://www.w3.org/2000/svg">
<path d="M14.2028 18.504C15.4606 17.6684 16.416 16.4501 16.9276 15.0293C17.4392 13.6085 17.4798 12.0608 17.0434 10.6152C16.6069 9.16957 15.7167 7.90284 14.5044 7.00248C13.2921 6.10212 11.8222 5.61597 10.3121 5.61597C8.80206 5.61597 7.33212 6.10212 6.11983 7.00248C4.90753 7.90284 4.01731 9.16957 3.58091 10.6152C3.1445 12.0608 3.1851 13.6085 3.69669 15.0293C4.20828 16.4501 5.16368 17.6684 6.4215 18.504C4.27577 19.293 2.42316 20.7203 1.11291 22.5938C1.02751 22.6928 0.963747 22.8085 0.92571 22.9335C0.887672 23.0586 0.876203 23.1902 0.892037 23.3199C0.907872 23.4497 0.950661 23.5747 1.01766 23.6869C1.08465 23.7991 1.17438 23.8961 1.28107 23.9716C1.38776 24.0471 1.50906 24.0995 1.63718 24.1253C1.7653 24.1512 1.89741 24.15 2.02503 24.1217C2.15266 24.0935 2.27297 24.0389 2.37824 23.9615C2.48352 23.884 2.57144 23.7854 2.63635 23.6719C3.50268 22.4412 4.65226 21.4368 5.98815 20.7435C7.32403 20.0502 8.80705 19.6883 10.3121 19.6883C11.8172 19.6883 13.3002 20.0502 14.6361 20.7435C15.972 21.4368 17.1216 22.4412 17.9879 23.6719C18.0528 23.7854 18.1407 23.884 18.246 23.9615C18.3513 24.0389 18.4716 24.0935 18.5992 24.1217C18.7268 24.15 18.859 24.1512 18.9871 24.1253C19.1152 24.0995 19.2365 24.0471 19.3432 23.9716C19.4499 23.8961 19.5396 23.7991 19.6066 23.6869C19.6736 23.5747 19.7164 23.4497 19.7322 23.3199C19.7481 23.1902 19.7366 23.0586 19.6985 22.9335C19.6605 22.8085 19.5967 22.6928 19.5113 22.5938C18.2011 20.7203 16.3485 19.293 14.2028 18.504ZM5.15588 12.6563C5.15588 11.6365 5.45829 10.6396 6.02486 9.79165C6.59144 8.94371 7.39674 8.28282 8.33892 7.89256C9.2811 7.50229 10.3179 7.40018 11.3181 7.59914C12.3183 7.79809 13.237 8.28918 13.9581 9.01029C14.6793 9.7314 15.1703 10.6502 15.3693 11.6504C15.5683 12.6506 15.4661 13.6873 15.0759 14.6295C14.6856 15.5717 14.0247 16.377 13.1768 16.9436C12.3288 17.5102 11.3319 17.8126 10.3121 17.8126C8.94461 17.8126 7.6331 17.2693 6.66611 16.3023C5.69913 15.3353 5.15588 14.0238 5.15588 12.6563ZM28.8395 23.8946C28.7398 23.9663 28.6268 24.0175 28.5072 24.0452C28.3875 24.0729 28.2635 24.0764 28.1424 24.0557C28.0214 24.035 27.9057 23.9904 27.802 23.9245C27.6983 23.8586 27.6088 23.7728 27.5387 23.6719C26.6717 22.4418 25.522 21.4378 24.1863 20.7444C22.8506 20.0511 21.3679 19.6886 19.8629 19.6876C19.6143 19.6876 19.3758 19.5888 19.2 19.413C19.0242 19.2372 18.9254 18.9987 18.9254 18.7501C18.9254 18.5014 19.0242 18.263 19.2 18.0871C19.3758 17.9113 19.6143 17.8126 19.8629 17.8126C21.2304 17.8126 22.5419 17.2693 23.5089 16.3023C24.4759 15.3353 25.0192 14.0238 25.0192 12.6563C25.0192 11.2888 24.4759 9.97727 23.5089 9.01029C22.5419 8.04331 21.2304 7.50006 19.8629 7.50006C19.392 7.50319 18.9234 7.5662 18.4684 7.68756C18.3499 7.72155 18.2258 7.73183 18.1034 7.71782C17.9809 7.70381 17.8624 7.66578 17.7546 7.60592C17.6469 7.54605 17.552 7.46552 17.4754 7.36893C17.3988 7.27234 17.342 7.16159 17.3082 7.04303C17.2428 6.80378 17.2736 6.54841 17.394 6.33159C17.5145 6.11476 17.715 5.9537 17.9528 5.88287C18.5757 5.71513 19.2178 5.62848 19.8629 5.62506C21.3745 5.61962 22.8475 6.10229 24.0628 7.00129C25.2781 7.90028 26.1706 9.16755 26.6078 10.6146C27.0449 12.0616 27.0033 13.6112 26.489 15.0326C25.9747 16.4541 25.0153 17.6716 23.7535 18.504C25.9007 19.2962 27.7561 20.7226 29.0738 22.5938C29.2145 22.7976 29.2688 23.0488 29.2249 23.2925C29.181 23.5362 29.0424 23.7527 28.8395 23.8946Z" fill="#9F9F9F"/>
</svg>
