<svg width="30" height="30" viewBox="0 0 30 30" fill="none" xmlns="http://www.w3.org/2000/svg">
<path d="M14.9996 27C18.1822 27 21.2345 25.7357 23.4849 23.4853C25.7354 21.2348 26.9996 18.1826 26.9996 15C26.9996 11.8174 25.7354 8.76516 23.4849 6.51472C21.2345 4.26428 18.1822 3 14.9996 3C11.817 3 8.76479 4.26428 6.51435 6.51472C4.26392 8.76516 2.99963 11.8174 2.99963 15C2.99963 18.1826 4.26392 21.2348 6.51435 23.4853C8.76479 25.7357 11.817 27 14.9996 27ZM14.9996 4.5C15.9851 4.5 17.1101 5.385 18.0326 7.362C18.3581 8.061 18.6416 8.865 18.8711 9.75H11.1281C11.3576 8.865 11.6411 8.061 11.9681 7.362C12.8876 5.385 14.0126 4.5 14.9996 4.5ZM10.6076 6.7275C10.1647 7.69772 9.82143 8.71042 9.58313 9.75H5.90363C7.16999 7.56131 9.18147 5.90122 11.5706 5.073C11.2091 5.568 10.8866 6.129 10.6076 6.7275ZM9.28763 11.25C9.0935 12.4905 8.99721 13.7444 8.99963 15C8.99963 16.305 9.10013 17.568 9.28913 18.75H5.18963C4.73217 17.5527 4.4983 16.2817 4.49963 15C4.49963 13.68 4.74413 12.414 5.18963 11.25H9.28913H9.28763ZM9.58313 20.25C9.84713 21.3645 10.1936 22.383 10.6076 23.2725C10.8866 23.871 11.2091 24.432 11.5706 24.927C9.18147 24.0988 7.16999 22.4387 5.90363 20.25H9.58463H9.58313ZM11.1281 20.25H18.8711C18.6645 21.0699 18.3833 21.8693 18.0311 22.638C17.1116 24.615 15.9866 25.5 14.9996 25.5C14.0141 25.5 12.8891 24.615 11.9666 22.638C11.6155 21.8691 11.3353 21.0698 11.1296 20.25H11.1281ZM19.1906 18.75H10.8086C10.6002 17.5109 10.4968 16.2565 10.4996 15C10.4996 13.6755 10.6091 12.4125 10.8086 11.25H19.1906C19.3901 12.4125 19.4996 13.6755 19.4996 15C19.4996 16.3245 19.3901 17.5875 19.1906 18.75ZM20.4161 20.25H24.0956C22.8293 22.4387 20.8178 24.0988 18.4286 24.927C18.7901 24.432 19.1126 23.871 19.3916 23.2725C19.8056 22.383 20.1521 21.3645 20.4161 20.25ZM24.8111 18.75H20.7101C20.8991 17.568 20.9996 16.305 20.9996 15C20.9996 13.695 20.8991 12.432 20.7101 11.25H24.8096C25.2551 12.414 25.4996 13.68 25.4996 15C25.4996 16.32 25.2551 17.586 24.8096 18.75H24.8111ZM18.4286 5.073C20.8179 5.90111 22.8294 7.56122 24.0956 9.75H20.4146C20.1763 8.71042 19.8331 7.69773 19.3901 6.7275C19.123 6.14634 18.8006 5.59228 18.4271 5.073H18.4286Z" fill="#9F9F9F"/>
</svg>
