<svg width="30" height="30" viewBox="0 0 30 30" fill="none" xmlns="http://www.w3.org/2000/svg">
<path d="M3.75001 11.2502C3.74995 9.39252 4.20993 7.56371 5.08889 5.9271C5.96785 4.29048 7.23841 2.89701 8.78714 1.87109C10.3359 0.845174 12.1146 0.218753 13.9644 0.0477602C15.8142 -0.123232 17.6776 0.166527 19.3881 0.891163C21.0987 1.6158 22.6031 2.75276 23.7672 4.20052C24.9313 5.64828 25.7187 7.36178 26.0592 9.18802C26.3997 11.0143 26.2826 12.8964 25.7184 14.6664C25.1542 16.4363 24.1605 18.039 22.826 19.3314C22.4454 19.6989 22.1529 20.0814 21.9767 20.492L20.5479 23.8088C20.4754 23.9769 20.3553 24.1201 20.2024 24.2208C20.0494 24.3214 19.8704 24.375 19.6873 24.3751C19.936 24.3751 20.1744 24.4738 20.3502 24.6496C20.526 24.8255 20.6248 25.0639 20.6248 25.3126C20.6248 25.5612 20.526 25.7996 20.3502 25.9755C20.1744 26.1513 19.936 26.25 19.6873 26.25C19.936 26.25 20.1744 26.3488 20.3502 26.5246C20.526 26.7004 20.6248 26.9389 20.6248 27.1875C20.6248 27.4362 20.526 27.6746 20.3502 27.8504C20.1744 28.0263 19.936 28.125 19.6873 28.125L19.2673 28.9631C19.1117 29.2745 18.8725 29.5365 18.5764 29.7196C18.2804 29.9027 17.9392 29.9998 17.5911 30H12.4087C12.0605 29.9998 11.7194 29.9027 11.4233 29.7196C11.1273 29.5365 10.888 29.2745 10.7324 28.9631L10.3124 28.125C10.0638 28.125 9.82534 28.0263 9.64952 27.8504C9.47371 27.6746 9.37494 27.4362 9.37494 27.1875C9.37494 26.9389 9.47371 26.7004 9.64952 26.5246C9.82534 26.3488 10.0638 26.25 10.3124 26.25C10.0638 26.25 9.82534 26.1513 9.64952 25.9755C9.47371 25.7996 9.37494 25.5612 9.37494 25.3126C9.37494 25.0639 9.47371 24.8255 9.64952 24.6496C9.82534 24.4738 10.0638 24.3751 10.3124 24.3751C10.129 24.3754 9.94958 24.3219 9.79628 24.2213C9.64298 24.1206 9.52256 23.9772 9.44994 23.8088L8.02308 20.4901C7.81878 20.0518 7.53017 19.6581 7.17372 19.3314C6.08927 18.2836 5.22717 17.0279 4.63892 15.6395C4.05067 14.251 3.74835 12.7582 3.75001 11.2502ZM14.9999 1.87533C13.1327 1.87502 11.308 2.43226 9.75953 3.47565C8.21109 4.51904 7.00948 6.00104 6.30871 7.73171C5.60794 9.46239 5.43993 11.3629 5.8262 13.1897C6.21248 15.0165 7.13545 16.6863 8.47682 17.9851C8.96994 18.4614 9.44056 19.0426 9.74431 19.7495L10.9312 22.5001H19.0723L20.2573 19.7495C20.5611 19.0426 21.0317 18.4614 21.5248 17.9851C22.8663 16.6862 23.7893 15.0162 24.1755 13.1892C24.5617 11.3623 24.3936 9.4616 23.6926 7.73085C22.9916 6.00009 21.7897 4.51811 20.2409 3.47486C18.6922 2.43162 16.8672 1.87464 14.9999 1.87533Z" fill="#9F9F9F"/>
</svg>
