<svg width="30" height="49" viewBox="0 0 30 49" fill="none" xmlns="http://www.w3.org/2000/svg">
<path d="M10.4238 45.0801V46H6.1582V45.0801H10.4238ZM6.38086 37.4688V46H5.25V37.4688H6.38086ZM12.7324 39.6602V46H11.6426V39.6602H12.7324ZM11.5605 37.9785C11.5605 37.8027 11.6133 37.6543 11.7188 37.5332C11.8281 37.4121 11.9883 37.3516 12.1992 37.3516C12.4062 37.3516 12.5645 37.4121 12.6738 37.5332C12.7871 37.6543 12.8438 37.8027 12.8438 37.9785C12.8438 38.1465 12.7871 38.291 12.6738 38.4121C12.5645 38.5293 12.4062 38.5879 12.1992 38.5879C11.9883 38.5879 11.8281 38.5293 11.7188 38.4121C11.6133 38.291 11.5605 38.1465 11.5605 37.9785ZM16.4004 45.0215L18.1348 39.6602H19.2422L16.9629 46H16.2363L16.4004 45.0215ZM14.9531 39.6602L16.7402 45.0508L16.8633 46H16.1367L13.8398 39.6602H14.9531ZM22.834 46.1172C22.3926 46.1172 21.9922 46.043 21.6328 45.8945C21.2773 45.7422 20.9707 45.5293 20.7129 45.2559C20.459 44.9824 20.2637 44.6582 20.127 44.2832C19.9902 43.9082 19.9219 43.498 19.9219 43.0527V42.8066C19.9219 42.291 19.998 41.832 20.1504 41.4297C20.3027 41.0234 20.5098 40.6797 20.7715 40.3984C21.0332 40.1172 21.3301 39.9043 21.6621 39.7598C21.9941 39.6152 22.3379 39.543 22.6934 39.543C23.1465 39.543 23.5371 39.6211 23.8652 39.7773C24.1973 39.9336 24.4688 40.1523 24.6797 40.4336C24.8906 40.7109 25.0469 41.0391 25.1484 41.418C25.25 41.793 25.3008 42.2031 25.3008 42.6484V43.1348H20.5664V42.25H24.2168V42.168C24.2012 41.8867 24.1426 41.6133 24.041 41.3477C23.9434 41.082 23.7871 40.8633 23.5723 40.6914C23.3574 40.5195 23.0645 40.4336 22.6934 40.4336C22.4473 40.4336 22.2207 40.4863 22.0137 40.5918C21.8066 40.6934 21.6289 40.8457 21.4805 41.0488C21.332 41.252 21.2168 41.5 21.1348 41.793C21.0527 42.0859 21.0117 42.4238 21.0117 42.8066V43.0527C21.0117 43.3535 21.0527 43.6367 21.1348 43.9023C21.2207 44.1641 21.3438 44.3945 21.5039 44.5938C21.668 44.793 21.8652 44.9492 22.0957 45.0625C22.3301 45.1758 22.5957 45.2324 22.8926 45.2324C23.2754 45.2324 23.5996 45.1543 23.8652 44.998C24.1309 44.8418 24.3633 44.6328 24.5625 44.3711L25.2188 44.8926C25.082 45.0996 24.9082 45.2969 24.6973 45.4844C24.4863 45.6719 24.2266 45.8242 23.918 45.9414C23.6133 46.0586 23.252 46.1172 22.834 46.1172Z" fill="#A21212"/>
<path d="M5.7193 5.71884C4.50039 6.93763 3.53349 8.38458 2.87381 9.97706C2.21413 11.5695 1.8746 13.2764 1.8746 15.0001C1.8746 16.7238 2.21413 18.4306 2.87381 20.0231C3.53349 21.6156 4.50039 23.0626 5.7193 24.2813C5.89007 24.4582 5.98456 24.695 5.98243 24.9408C5.98029 25.1866 5.8817 25.4217 5.70788 25.5955C5.53406 25.7694 5.29892 25.868 5.05311 25.8701C4.8073 25.8722 4.57049 25.7777 4.39367 25.607C3.00071 24.2141 1.89575 22.5605 1.14188 20.7405C0.388012 18.9206 0 16.97 0 15.0001C0 13.0302 0.388012 11.0796 1.14188 9.25966C1.89575 7.43973 3.00071 5.78611 4.39367 4.39322C4.57049 4.22244 4.8073 4.12795 5.05311 4.13009C5.29892 4.13222 5.53406 4.23082 5.70788 4.40464C5.8817 4.57846 5.98029 4.81359 5.98243 5.0594C5.98456 5.30521 5.89007 5.54203 5.7193 5.71884ZM9.69805 9.69759C8.29201 11.104 7.50215 13.0114 7.50215 15.0001C7.50215 16.9888 8.29201 18.8961 9.69805 20.3026C9.78521 20.3898 9.85435 20.4932 9.90153 20.6071C9.9487 20.721 9.97298 20.8431 9.97298 20.9663C9.97298 21.0896 9.9487 21.2117 9.90153 21.3256C9.85435 21.4394 9.78521 21.5429 9.69805 21.6301C9.61088 21.7173 9.5074 21.7864 9.39352 21.8336C9.27963 21.8807 9.15757 21.905 9.0343 21.905C8.91103 21.905 8.78896 21.8807 8.67508 21.8336C8.56119 21.7864 8.45771 21.7173 8.37055 21.6301C7.49974 20.7595 6.80896 19.7259 6.33766 18.5883C5.86637 17.4507 5.6238 16.2314 5.6238 15.0001C5.6238 13.7687 5.86637 12.5495 6.33766 11.4119C6.80896 10.2743 7.49974 9.24067 8.37055 8.37009C8.54658 8.19406 8.78534 8.09516 9.0343 8.09516C9.28325 8.09516 9.52201 8.19406 9.69805 8.37009C9.87408 8.54613 9.97298 8.78489 9.97298 9.03384C9.97298 9.2828 9.87408 9.52155 9.69805 9.69759ZM20.303 8.37009C20.3901 8.28279 20.4936 8.21352 20.6075 8.16626C20.7214 8.11899 20.8435 8.09467 20.9668 8.09467C21.0901 8.09467 21.2122 8.11899 21.3261 8.16626C21.44 8.21352 21.5435 8.28279 21.6305 8.37009C22.5014 9.24067 23.1921 10.2743 23.6634 11.4119C24.1347 12.5495 24.3773 13.7687 24.3773 15.0001C24.3773 16.2314 24.1347 17.4507 23.6634 18.5883C23.1921 19.7259 22.5014 20.7595 21.6305 21.6301C21.5434 21.7173 21.4399 21.7864 21.326 21.8336C21.2121 21.8807 21.0901 21.905 20.9668 21.905C20.8435 21.905 20.7215 21.8807 20.6076 21.8336C20.4937 21.7864 20.3902 21.7173 20.303 21.6301C20.2159 21.5429 20.1467 21.4394 20.0996 21.3256C20.0524 21.2117 20.0281 21.0896 20.0281 20.9663C20.0281 20.8431 20.0524 20.721 20.0996 20.6071C20.1467 20.4932 20.2159 20.3898 20.303 20.3026C21.7091 18.8961 22.4989 16.9888 22.4989 15.0001C22.4989 13.0114 21.7091 11.104 20.303 9.69759C20.2157 9.61051 20.1465 9.50705 20.0992 9.39316C20.052 9.27926 20.0276 9.15716 20.0276 9.03384C20.0276 8.91053 20.052 8.78843 20.0992 8.67453C20.1465 8.56063 20.2157 8.45718 20.303 8.37009ZM24.2818 4.39509C24.4576 4.21934 24.696 4.12061 24.9446 4.12061C25.1932 4.12061 25.4316 4.21934 25.6074 4.39509C28.4201 7.20808 30.0002 11.0231 30.0002 15.001C30.0002 18.979 28.4201 22.794 25.6074 25.607C25.4306 25.7777 25.1938 25.8722 24.948 25.8701C24.7022 25.868 24.467 25.7694 24.2932 25.5955C24.1194 25.4217 24.0208 25.1866 24.0187 24.9408C24.0165 24.695 24.111 24.4582 24.2818 24.2813C25.5007 23.0626 26.4676 21.6156 27.1273 20.0231C27.787 18.4306 28.1265 16.7238 28.1265 15.0001C28.1265 13.2764 27.787 11.5695 27.1273 9.97706C26.4676 8.38458 25.5007 6.93763 24.2818 5.71884C24.106 5.54304 24.0073 5.30462 24.0073 5.05603C24.0073 4.80744 24.106 4.56902 24.2818 4.39322V4.39509ZM18.7505 15.0001C18.7505 15.9947 18.3555 16.9485 17.6522 17.6517C16.9489 18.355 15.9951 18.7501 15.0005 18.7501C14.006 18.7501 13.0522 18.355 12.3489 17.6517C11.6456 16.9485 11.2505 15.9947 11.2505 15.0001C11.2505 14.0055 11.6456 13.0517 12.3489 12.3484C13.0522 11.6452 14.006 11.2501 15.0005 11.2501C15.9951 11.2501 16.9489 11.6452 17.6522 12.3484C18.3555 13.0517 18.7505 14.0055 18.7505 15.0001Z" fill="#A21212"/>
</svg>
