<svg width="30" height="30" viewBox="0 0 30 30" fill="none" xmlns="http://www.w3.org/2000/svg">
<path d="M25.1511 22.3711C24.5984 21.062 23.7964 19.873 22.7897 18.8701C21.7861 17.8644 20.5973 17.0625 19.2888 16.5088C19.2771 16.5029 19.2653 16.5 19.2536 16.4941C21.0788 15.1758 22.2653 13.0283 22.2653 10.6055C22.2653 6.5918 19.0134 3.33984 14.9997 3.33984C10.986 3.33984 7.73408 6.5918 7.73408 10.6055C7.73408 13.0283 8.9206 15.1758 10.7458 16.4971C10.7341 16.5029 10.7224 16.5059 10.7106 16.5117C9.39814 17.0654 8.22041 17.8594 7.20967 18.873C6.20393 19.8767 5.40206 21.0655 4.84834 22.374C4.30436 23.655 4.01098 25.0285 3.98408 26.4199C3.9833 26.4512 3.98878 26.4823 4.00021 26.5114C4.01164 26.5405 4.02878 26.5671 4.05062 26.5895C4.07246 26.6118 4.09857 26.6296 4.12739 26.6418C4.15622 26.6539 4.18718 26.6602 4.21846 26.6602H5.97627C6.10518 26.6602 6.20771 26.5576 6.21064 26.4316C6.26924 24.1699 7.17744 22.0518 8.78291 20.4463C10.444 18.7852 12.6501 17.8711 14.9997 17.8711C17.3493 17.8711 19.5554 18.7852 21.2165 20.4463C22.822 22.0518 23.7302 24.1699 23.7888 26.4316C23.7917 26.5605 23.8942 26.6602 24.0231 26.6602H25.781C25.8122 26.6602 25.8432 26.6539 25.872 26.6418C25.9008 26.6296 25.9269 26.6118 25.9488 26.5895C25.9706 26.5671 25.9878 26.5405 25.9992 26.5114C26.0106 26.4823 26.0161 26.4512 26.0153 26.4199C25.986 25.0195 25.696 23.6572 25.1511 22.3711ZM14.9997 15.6445C13.655 15.6445 12.3894 15.1201 11.4372 14.168C10.4851 13.2158 9.96064 11.9502 9.96064 10.6055C9.96064 9.26074 10.4851 7.99512 11.4372 7.04297C12.3894 6.09082 13.655 5.56641 14.9997 5.56641C16.3444 5.56641 17.6101 6.09082 18.5622 7.04297C19.5144 7.99512 20.0388 9.26074 20.0388 10.6055C20.0388 11.9502 19.5144 13.2158 18.5622 14.168C17.6101 15.1201 16.3444 15.6445 14.9997 15.6445Z" fill="#9F9F9F"/>
</svg>
